<svg width="151" height="35" viewBox="0 0 151 35" fill="none" xmlns="http://www.w3.org/2000/svg">
<path fill-rule="evenodd" clip-rule="evenodd" d="M39.8066 14.4508C38.4963 14.4508 38.1186 15.8893 37.657 18.0577C37.2466 19.9825 36.8969 21.8187 38.2538 21.8187C39.3217 21.8187 39.8159 20.5357 40.3149 18.2127C40.7672 16.0879 41.0283 14.4508 39.8066 14.4508M39.4336 22.66H39.3869C38.9439 23.479 38.0067 24.4294 36.4073 24.4294C33.9825 24.4294 33.0639 22.7041 34.0152 18.235C34.8125 14.5167 35.9177 11.8397 38.874 11.8397C39.8765 11.8397 40.8931 12.1719 41.2195 13.4545H41.2615L42.3619 8.32227H45.9618L42.5857 24.1203H39.1211L39.4336 22.66" fill="#006340"/>
<path fill-rule="evenodd" clip-rule="evenodd" d="M53.9261 24.1201H50.4569L50.76 22.7034H50.718C49.9766 23.7661 48.7922 24.4292 47.4586 24.4292C45.4115 24.4292 44.5395 23.4111 45.0291 21.1104L46.9456 12.1494H50.5455L48.8062 20.3146C48.6197 21.1768 48.8901 21.6858 49.5569 21.6858C50.247 21.6858 50.9605 21.1559 51.2076 19.9823L52.8816 12.1494H56.4861L53.9261 24.1201" fill="#006340"/>
<path fill-rule="evenodd" clip-rule="evenodd" d="M61.0421 21.8187C62.399 21.8187 62.8374 19.9825 63.2477 18.0582C63.7093 15.8893 63.9518 14.4508 62.6369 14.4508C61.4198 14.4508 60.9815 16.0879 60.5245 18.2127C60.0302 20.5357 59.979 21.8187 61.0421 21.8187M59.1023 8.32227H62.7068L61.6063 13.4545H61.653C62.5249 12.1719 63.686 11.8397 64.6886 11.8397C67.6449 11.8397 67.6076 14.5167 66.8102 18.235C65.859 22.7041 64.199 24.4294 61.7742 24.4294C60.1748 24.4294 59.6432 23.479 59.5546 22.66H59.508L59.1956 24.1203H55.731L59.1023 8.32227" fill="#006340"/>
<path fill-rule="evenodd" clip-rule="evenodd" d="M16.6037 12.1298H20.0729L19.7139 13.8105H19.7605C20.4553 12.7488 21.5651 11.8193 23.0759 11.8193C23.2531 11.8193 23.4303 11.8193 23.6448 11.863L22.9267 15.2291C22.5863 15.1613 22.3018 15.139 21.9475 15.139C20.4973 15.139 19.4388 15.7367 19.103 17.3089L17.6482 24.1037H14.0483L16.6037 12.1298" fill="#006340"/>
<path fill-rule="evenodd" clip-rule="evenodd" d="M28.8161 14.1609C27.7483 14.1609 27.2167 15.198 26.5965 18.0922C25.9763 21.0068 26.0649 22.0443 27.1281 22.0443C28.2426 22.0443 28.6762 21.0518 29.3011 18.1149C29.9352 15.1539 29.9212 14.1609 28.8161 14.1609M22.9967 18.1344C23.7568 14.5585 25.1417 11.8193 29.2917 11.8193C33.6889 11.8193 33.6703 14.4922 32.9056 18.0708C32.1408 21.6476 30.7606 24.3854 26.6105 24.3854C22.2133 24.3854 22.232 21.714 22.9967 18.1344" fill="#006340"/>
<path fill-rule="evenodd" clip-rule="evenodd" d="M8.11218 15.1914H9.13337C10.6255 15.1914 11.1758 14.2633 11.4043 13.2021C11.6654 11.9845 11.4649 11.055 9.9494 11.055H8.99815L8.11218 15.1914ZM5.84596 8.31348H11.6234C15.559 8.31348 15.7082 11.1455 15.2885 13.1121C14.687 15.9427 12.9057 17.9343 9.17067 17.9343H7.52463L6.20967 24.1037H2.47461L5.84596 8.31348V8.31348Z" fill="#006340"/>
<path fill-rule="evenodd" clip-rule="evenodd" d="M86.9917 11.8115C85.6535 11.8115 84.4644 12.4737 83.7276 13.5391H83.681L83.9841 12.121H80.5102L77.9502 24.1061H81.5547L83.2334 16.2639C83.4852 15.0895 84.1986 14.5568 84.8887 14.5568C85.5555 14.5568 85.826 15.0681 85.6441 15.9326L83.8955 24.1061H87.5047L89.4212 15.134C89.9108 12.8296 89.0388 11.8115 86.9917 11.8115" fill="#006340"/>
<path fill-rule="evenodd" clip-rule="evenodd" d="M73.5435 20.3186C73.287 21.5149 72.5036 21.9571 71.7482 21.9571C71.0814 21.9571 70.8249 21.3812 71.0301 20.4295C71.17 19.7678 71.4311 19.391 71.8648 19.1023C72.2611 18.8378 72.7554 18.8165 74.0144 18.2202C73.9118 18.7042 73.758 19.3269 73.5435 20.3186M74.4434 11.8467C72.9513 11.8467 71.8834 12.0448 70.9182 12.6202C69.9483 13.1975 69.2488 14.191 68.8758 15.829H72.0793C72.3218 14.7887 72.7368 14.191 73.7393 14.191C74.5413 14.191 74.7745 14.6569 74.6206 15.3859C74.4248 16.2926 74.187 16.4708 73.0352 16.7576C71.9767 17.0221 70.5964 17.2434 69.6032 17.7316C68.61 18.2202 67.7847 19.391 67.4862 20.784C66.9313 23.3733 67.8826 24.4373 69.9063 24.4373C71.1094 24.4373 72.3731 23.816 73.0865 22.7524H73.1331C73.0585 23.2202 72.9979 23.7028 73.0445 24.1269H76.5091C76.2014 23.5956 76.4485 22.4452 76.6397 21.5385L77.9547 15.3859C78.4956 12.8652 77.3998 11.8467 74.4434 11.8467" fill="#006340"/>
<path fill-rule="evenodd" clip-rule="evenodd" d="M106.637 14.1609C105.569 14.1609 105.038 15.198 104.422 18.0922C103.797 21.0068 103.886 22.0443 104.949 22.0443C106.063 22.0443 106.497 21.0518 107.122 18.1149C107.756 15.1539 107.747 14.1609 106.637 14.1609M100.817 18.1344C101.578 14.5585 102.962 11.8193 107.113 11.8193C111.51 11.8193 111.491 14.4922 110.726 18.0708C109.962 21.6476 108.577 24.3854 104.431 24.3854C100.034 24.3854 100.053 21.714 100.817 18.1344" fill="#006340"/>
<path fill-rule="evenodd" clip-rule="evenodd" d="M96.8074 16.6504C97.1805 14.9038 96.938 14.1734 95.9821 14.1734C94.7837 14.1734 94.3081 15.6773 93.7858 18.1326C93.2076 20.8305 93.1003 22.0676 94.2987 22.0676C95.3666 22.0676 95.7629 21.3381 96.2572 19.2374H99.5912C98.7799 22.9307 96.9986 24.4128 93.7298 24.4128C89.1974 24.4128 89.5192 21.2509 90.2792 17.6908C90.9927 14.3289 92.5081 11.8291 96.4204 11.8291C100.197 11.8291 100.752 13.798 100.141 16.6504H96.8074" fill="#006340"/>
<path fill-rule="evenodd" clip-rule="evenodd" d="M50.6762 32.3591C50.5782 32.8144 50.1679 32.999 49.8788 32.999C49.5897 32.999 49.5291 32.7359 49.599 32.4209C49.6783 32.0501 49.8928 31.8427 50.3451 31.7522C50.485 31.7197 50.6808 31.6501 50.8487 31.5401L50.6762 32.3591ZM50.8254 29.3592C50.0187 29.3592 49.2959 29.6835 49.0908 30.6385L49.0674 30.7392H50.028L50.0513 30.6246C50.1213 30.2984 50.3404 30.0858 50.6622 30.0858C51.0212 30.0858 51.1238 30.2765 51.0539 30.593C50.9933 30.8705 50.858 30.9939 50.5223 31.077L49.8835 31.2413C49.1001 31.4403 48.7177 31.7587 48.5498 32.5378C48.4333 33.0914 48.5638 33.7253 49.3053 33.7253C49.8182 33.7253 50.1446 33.6185 50.485 33.1851H50.499C50.499 33.3225 50.499 33.4854 50.5363 33.6185H51.5621C51.5015 33.3772 51.5202 33.2 51.6041 32.8144L52.0657 30.6306C52.229 29.8844 52.0984 29.3592 50.8254 29.3592V29.3592ZM48.4706 30.9601C48.6804 29.9847 48.298 29.3592 47.3188 29.3592C46.3349 29.3592 45.5236 29.8362 45.1598 31.5401C44.8008 33.2088 45.2251 33.7253 46.2883 33.7253C47.4261 33.7253 48.0089 33.1151 48.2374 32.0255H47.2209C47.0763 32.7002 46.8479 32.999 46.4935 32.999C46.0085 32.999 46.0085 32.5735 46.2277 31.5508C46.4328 30.593 46.6194 30.129 47.1416 30.129C47.5473 30.129 47.5333 30.561 47.4494 30.9601H48.4706ZM43.0475 33.6185H44.12L45.006 29.4664H43.9381L43.0475 33.6185ZM45.3091 28.0469H44.2412L44.0454 28.9568H45.1132L45.3091 28.0469ZM43.5325 29.3735C43.4672 29.3656 43.4019 29.3592 43.3413 29.3592C42.8983 29.3592 42.5439 29.6209 42.2361 30.019H42.2175L42.3387 29.4663H41.3175L40.4316 33.6185H41.4994L42.0356 31.1239C42.1522 30.5694 42.6092 30.3754 42.9822 30.3754C43.0895 30.3754 43.206 30.3851 43.3133 30.3916L43.5325 29.3735ZM39.3917 31.0701H38.3006L38.3332 30.9081C38.4172 30.5234 38.6316 30.0858 39.0606 30.0858C39.5036 30.0858 39.5036 30.4385 39.3917 31.0701V31.0701ZM39.2565 29.3592C37.811 29.3592 37.3773 30.3916 37.1348 31.5002C36.9157 32.5378 36.7245 33.7253 38.2773 33.7253C39.2798 33.7253 39.8627 33.1851 40.1098 32.2181H39.1492C38.9767 32.7332 38.7715 32.999 38.4125 32.999C38.0161 32.999 37.9882 32.5202 38.0954 32.0352L38.1653 31.7025H40.2823L40.3336 31.4649C40.6041 30.1888 40.5062 29.3592 39.2565 29.3592V29.3592ZM35.9971 29.3592C35.4935 29.3592 35.0551 29.5828 34.8033 30.019H34.7847C34.7614 29.5972 34.4536 29.3592 33.9687 29.3592C33.5163 29.3592 33.148 29.5137 32.7982 29.8909H32.7843L32.8775 29.4663H31.8517L30.9657 33.6185H32.0335L32.6164 30.8854C32.719 30.4056 32.9848 30.1726 33.3298 30.1726C33.6329 30.1726 33.7029 30.3707 33.6329 30.7178L33.0127 33.6185H34.0852L34.6634 30.8854C34.766 30.4056 35.0318 30.1726 35.3722 30.1726C35.6753 30.1726 35.7499 30.3707 35.68 30.7178L35.0551 33.6185H36.1276L36.7711 30.5995C36.939 29.7991 36.7058 29.3592 35.9971 29.3592V29.3592ZM29.7626 31.5401C29.5435 32.5735 29.315 32.9991 28.8813 32.9991C28.3544 32.9991 28.4383 32.3879 28.6155 31.5401C28.7974 30.6919 28.9746 30.0858 29.5015 30.0858C29.9352 30.0858 29.9818 30.5095 29.7626 31.5401V31.5401ZM29.6554 29.3592C28.4337 29.3592 27.8508 30.1202 27.5477 31.5401C27.2399 32.9865 27.4311 33.7475 28.7228 33.7253C29.9491 33.7253 30.532 32.9619 30.8351 31.5401C31.1429 30.0993 30.9517 29.3355 29.6554 29.3592V29.3592ZM27.7622 29.3735C27.7016 29.3656 27.6363 29.3592 27.571 29.3592C27.128 29.3592 26.769 29.6209 26.4706 30.019H26.4519L26.5731 29.4663H25.5473L24.6613 33.6185H25.7291L26.2654 31.1239C26.382 30.5694 26.8436 30.3754 27.212 30.3754C27.3239 30.3754 27.4358 30.3851 27.543 30.3916L27.7622 29.3735ZM23.8733 29.8427C23.7567 30.4042 23.3976 30.6687 22.9547 30.6687H22.4604L22.8148 28.9949H23.2811C23.8406 28.9949 23.9898 29.3039 23.8733 29.8427V29.8427ZM23.8966 28.1077H21.9428L20.763 33.6185H21.8822L22.3531 31.4176H22.95C24.0038 31.4176 24.8199 30.9002 25.0623 29.7606C25.2395 28.9336 25.0297 28.1077 23.8966 28.1077V28.1077ZM17.5782 31.5401C17.3591 32.5735 17.1259 32.9991 16.6922 32.9991C16.1653 32.9991 16.2493 32.3879 16.4311 31.5401C16.6083 30.6919 16.7902 30.0858 17.3171 30.0858C17.7507 30.0858 17.7974 30.5095 17.5782 31.5401V31.5401ZM17.471 29.3592C16.2446 29.3592 15.6617 30.1202 15.3633 31.5401C15.0509 32.9865 15.2467 33.7475 16.5384 33.7253C17.7647 33.7253 18.3476 32.9619 18.646 31.5401C18.9585 30.0993 18.7626 29.3355 17.471 29.3592V29.3592ZM13.8152 31.5401C13.624 32.4459 13.4328 32.9067 12.9665 32.9067C12.4956 32.9067 12.5002 32.4459 12.6961 31.5401C12.8872 30.6385 13.0784 30.1726 13.5541 30.1726C14.0157 30.1726 14.011 30.6385 13.8152 31.5401V31.5401ZM14.0716 29.3592C13.6566 29.3592 13.3256 29.5179 13.0131 29.9053H12.9945L13.0878 29.4663H12.0666L10.8915 34.974H11.9593L12.3323 33.2283H12.351C12.5002 33.5605 12.738 33.7253 13.139 33.7253C14.0204 33.7253 14.5566 33.084 14.8877 31.5401C15.2141 29.9986 14.9483 29.3592 14.0716 29.3592V29.3592ZM10.2853 29.4664L9.69776 32.2181C9.59517 32.6826 9.34803 32.9067 8.97966 32.9067C8.66724 32.9067 8.55999 32.7466 8.64859 32.3271L9.25944 29.4664H8.19161L7.53413 32.5438C7.3616 33.3615 7.67402 33.7253 8.34083 33.7253C8.79314 33.7253 9.22213 33.5397 9.53455 33.1304H9.54854L9.44129 33.6185H10.4672L11.3531 29.4664H10.2853ZM7.74862 29.3735C7.68801 29.3656 7.61806 29.3592 7.55744 29.3592C7.11446 29.3592 6.75541 29.6209 6.45231 30.019H6.43832L6.5549 29.4663H5.5337L4.64773 33.6185H5.71556L6.2518 31.1239C6.36838 30.5694 6.82535 30.3754 7.19839 30.3754C7.3103 30.3754 7.42221 30.3851 7.52946 30.3916L7.74862 29.3735ZM2.68461 31.465H3.42136L3.30479 32.0255C3.17422 32.6227 2.68927 32.9067 2.42348 32.9067C1.77999 32.9067 1.83594 32.0724 2.12039 30.7466C2.40949 29.3735 2.74523 28.8186 3.2908 28.8186C3.73845 28.8186 3.81305 29.3355 3.72912 29.7425H4.79695C5.03942 28.626 4.67571 28 3.44934 28C2.02246 28 1.38363 28.9494 0.991941 30.8023C0.58626 32.7058 0.637553 33.7253 2.00847 33.7253C2.53073 33.7253 2.9504 33.5397 3.30479 33.1067H3.31878L3.21153 33.6185H4.03221L4.66638 30.6464H2.8618L2.68461 31.465V31.465Z" fill="#006340"/>
<path fill-rule="evenodd" clip-rule="evenodd" d="M138.355 7.21078C132.405 13.0237 127.094 19.4404 122.314 26.2409L122.319 26.2441C130.829 18.8868 140.085 12.3889 150.04 7.12075V7.10869C146.147 6.95973 142.248 6.9899 138.355 7.21078" fill="#62B447"/>
<path fill-rule="evenodd" clip-rule="evenodd" d="M143.456 28.8483L143.46 28.8436C142.192 24.149 140.938 19.4492 139.697 14.7416C136.625 16.7161 133.626 18.7848 130.689 20.9546C134.988 23.5184 139.236 26.1578 143.456 28.8483M118.826 30.0761H118.835C123.997 21.6279 129.98 13.6864 136.932 6.61079C136.093 4.45117 134.368 0.133789 134.368 0.133789C132.013 2.77925 129.933 5.64142 128.012 8.61264C124.305 9.45811 120.649 10.5166 117.11 11.9054C117.11 11.9054 121.605 14.9416 123.811 16.5082C121.941 20.8061 119.003 29.5518 118.826 30.0761" fill="#006340"/>
</svg>
